<mxfile host="app.diagrams.net" agent="Mozilla/5.0 (Macintosh; Intel Mac OS X 10_15_7) AppleWebKit/537.36 (KHTML, like Gecko) Chrome/138.0.0.0 Safari/537.36" version="28.2.4">
  <diagram name="原型图" id="9Li6IN2-fdfVNfoZi-YO">
    <mxGraphModel dx="2551" dy="2120" grid="0" gridSize="10" guides="0" tooltips="1" connect="1" arrows="1" fold="1" page="0" pageScale="1" pageWidth="827" pageHeight="1169" math="0" shadow="0">
      <root>
        <mxCell id="0" />
        <mxCell id="1" parent="0" />
        <mxCell id="GwXWVeqkWk4CuG4hyDd8-16" value="" style="rounded=1;whiteSpace=wrap;html=1;fillColor=#CCE5FF;" parent="1" vertex="1">
          <mxGeometry x="-1062" y="-986" width="136" height="129" as="geometry" />
        </mxCell>
        <mxCell id="je_rRdqIXx3PYmjw4o95-9" style="edgeStyle=orthogonalEdgeStyle;rounded=1;orthogonalLoop=1;jettySize=auto;html=1;entryX=0;entryY=0.5;entryDx=0;entryDy=0;entryPerimeter=0;exitX=0;exitY=0.75;exitDx=0;exitDy=0;" parent="1" edge="1">
          <mxGeometry relative="1" as="geometry">
            <mxPoint x="2548" y="561" as="sourcePoint" />
            <Array as="points">
              <mxPoint x="2414" y="561" />
              <mxPoint x="2414" y="760" />
            </Array>
          </mxGeometry>
        </mxCell>
        <mxCell id="je_rRdqIXx3PYmjw4o95-10" value="2. 监听到的gateway节点列表和DB中节点信息对比" style="edgeLabel;html=1;align=center;verticalAlign=middle;resizable=0;points=[];rounded=1;" parent="je_rRdqIXx3PYmjw4o95-9" vertex="1" connectable="0">
          <mxGeometry x="-0.0089" y="3" relative="1" as="geometry">
            <mxPoint as="offset" />
          </mxGeometry>
        </mxCell>
        <mxCell id="GwXWVeqkWk4CuG4hyDd8-29" style="edgeStyle=orthogonalEdgeStyle;rounded=1;orthogonalLoop=1;jettySize=auto;html=1;exitX=1;exitY=0.5;exitDx=0;exitDy=0;entryX=0;entryY=0.5;entryDx=0;entryDy=0;" parent="1" source="GwXWVeqkWk4CuG4hyDd8-5" target="GwXWVeqkWk4CuG4hyDd8-26" edge="1">
          <mxGeometry relative="1" as="geometry">
            <mxPoint x="-870.375" y="-897.5" as="targetPoint" />
          </mxGeometry>
        </mxCell>
        <mxCell id="GwXWVeqkWk4CuG4hyDd8-5" value="&lt;b&gt;PCMS边车&lt;/b&gt;" style="rounded=1;whiteSpace=wrap;html=1;" parent="1" vertex="1">
          <mxGeometry x="-1054" y="-901" width="120" height="34" as="geometry" />
        </mxCell>
        <mxCell id="GwXWVeqkWk4CuG4hyDd8-28" style="edgeStyle=orthogonalEdgeStyle;rounded=1;orthogonalLoop=1;jettySize=auto;html=1;exitX=1;exitY=0.5;exitDx=0;exitDy=0;entryX=0;entryY=0.5;entryDx=0;entryDy=0;" parent="1" source="GwXWVeqkWk4CuG4hyDd8-6" target="GwXWVeqkWk4CuG4hyDd8-26" edge="1">
          <mxGeometry relative="1" as="geometry" />
        </mxCell>
        <mxCell id="GwXWVeqkWk4CuG4hyDd8-6" value="&lt;b&gt;Gateway&lt;/b&gt;" style="rounded=1;whiteSpace=wrap;html=1;" parent="1" vertex="1">
          <mxGeometry x="-1054" y="-948" width="120" height="37" as="geometry" />
        </mxCell>
        <mxCell id="GwXWVeqkWk4CuG4hyDd8-17" value="" style="rounded=1;whiteSpace=wrap;html=1;fillColor=#CCE5FF;" parent="1" vertex="1">
          <mxGeometry x="-1064" y="-817" width="136" height="139" as="geometry" />
        </mxCell>
        <mxCell id="GwXWVeqkWk4CuG4hyDd8-31" style="edgeStyle=orthogonalEdgeStyle;rounded=1;orthogonalLoop=1;jettySize=auto;html=1;exitX=1;exitY=0.5;exitDx=0;exitDy=0;entryX=0;entryY=0.5;entryDx=0;entryDy=0;" parent="1" source="GwXWVeqkWk4CuG4hyDd8-18" target="GwXWVeqkWk4CuG4hyDd8-27" edge="1">
          <mxGeometry relative="1" as="geometry" />
        </mxCell>
        <mxCell id="GwXWVeqkWk4CuG4hyDd8-18" value="&lt;b&gt;eshop边车&lt;/b&gt;" style="rounded=1;whiteSpace=wrap;html=1;" parent="1" vertex="1">
          <mxGeometry x="-1056" y="-725" width="120" height="35" as="geometry" />
        </mxCell>
        <mxCell id="GwXWVeqkWk4CuG4hyDd8-30" style="edgeStyle=orthogonalEdgeStyle;rounded=1;orthogonalLoop=1;jettySize=auto;html=1;exitX=1;exitY=0.5;exitDx=0;exitDy=0;entryX=0;entryY=0.5;entryDx=0;entryDy=0;" parent="1" source="GwXWVeqkWk4CuG4hyDd8-19" target="GwXWVeqkWk4CuG4hyDd8-27" edge="1">
          <mxGeometry relative="1" as="geometry" />
        </mxCell>
        <mxCell id="GwXWVeqkWk4CuG4hyDd8-19" value="&lt;b&gt;Gateway&lt;/b&gt;" style="rounded=1;whiteSpace=wrap;html=1;" parent="1" vertex="1">
          <mxGeometry x="-1056" y="-769" width="120" height="35" as="geometry" />
        </mxCell>
        <mxCell id="GwXWVeqkWk4CuG4hyDd8-35" style="edgeStyle=orthogonalEdgeStyle;rounded=1;orthogonalLoop=1;jettySize=auto;html=1;exitX=1;exitY=0.5;exitDx=0;exitDy=0;entryX=0.5;entryY=1;entryDx=0;entryDy=0;" parent="1" source="GwXWVeqkWk4CuG4hyDd8-26" target="GwXWVeqkWk4CuG4hyDd8-32" edge="1">
          <mxGeometry relative="1" as="geometry" />
        </mxCell>
        <mxCell id="GwXWVeqkWk4CuG4hyDd8-26" value="&lt;b&gt;CoreTran3-prod&lt;/b&gt;&lt;div&gt;&lt;b&gt;采集器&lt;/b&gt;&lt;/div&gt;" style="rounded=1;whiteSpace=wrap;html=1;" parent="1" vertex="1">
          <mxGeometry x="-871" y="-937" width="120" height="60" as="geometry" />
        </mxCell>
        <mxCell id="GwXWVeqkWk4CuG4hyDd8-36" style="edgeStyle=orthogonalEdgeStyle;rounded=1;orthogonalLoop=1;jettySize=auto;html=1;exitX=1;exitY=0.5;exitDx=0;exitDy=0;entryX=0.5;entryY=0;entryDx=0;entryDy=0;" parent="1" source="GwXWVeqkWk4CuG4hyDd8-27" target="GwXWVeqkWk4CuG4hyDd8-32" edge="1">
          <mxGeometry relative="1" as="geometry" />
        </mxCell>
        <mxCell id="GwXWVeqkWk4CuG4hyDd8-27" value="&lt;b&gt;eshop-prod&lt;/b&gt;&lt;div&gt;&lt;b&gt;采集器&lt;/b&gt;&lt;/div&gt;" style="rounded=1;whiteSpace=wrap;html=1;" parent="1" vertex="1">
          <mxGeometry x="-866" y="-758" width="120" height="60" as="geometry" />
        </mxCell>
        <mxCell id="GwXWVeqkWk4CuG4hyDd8-34" value="" style="group;rounded=1;" parent="1" vertex="1" connectable="0">
          <mxGeometry x="-756" y="-867" width="100" height="80" as="geometry" />
        </mxCell>
        <mxCell id="GwXWVeqkWk4CuG4hyDd8-32" value="" style="shape=dataStorage;whiteSpace=wrap;html=1;fixedSize=1;rotation=-180;rounded=1;fillColor=#f8cecc;strokeColor=#b85450;" parent="GwXWVeqkWk4CuG4hyDd8-34" vertex="1">
          <mxGeometry width="100" height="80" as="geometry" />
        </mxCell>
        <mxCell id="GwXWVeqkWk4CuG4hyDd8-33" value="&lt;b&gt;kafka&lt;/b&gt;&lt;div&gt;&lt;b&gt;&lt;font style=&quot;color: rgb(255, 0, 0);&quot;&gt;单个topic&lt;/font&gt;&lt;/b&gt;&lt;/div&gt;" style="text;html=1;align=center;verticalAlign=middle;resizable=0;points=[];autosize=1;strokeColor=none;fillColor=none;rounded=1;" parent="GwXWVeqkWk4CuG4hyDd8-34" vertex="1">
          <mxGeometry x="19" y="17" width="71" height="41" as="geometry" />
        </mxCell>
        <mxCell id="GwXWVeqkWk4CuG4hyDd8-37" value="" style="group;rounded=1;" parent="1" vertex="1" connectable="0">
          <mxGeometry x="-1007" y="-848" width="20" height="27" as="geometry" />
        </mxCell>
        <mxCell id="GwXWVeqkWk4CuG4hyDd8-38" value="" style="shape=waypoint;size=6;pointerEvents=1;points=[];fillColor=none;resizable=0;rotatable=0;perimeter=centerPerimeter;snapToPoint=1;rounded=1;" parent="GwXWVeqkWk4CuG4hyDd8-37" vertex="1">
          <mxGeometry width="20" height="20" as="geometry" />
        </mxCell>
        <mxCell id="GwXWVeqkWk4CuG4hyDd8-39" value="" style="shape=waypoint;size=6;pointerEvents=1;points=[];fillColor=none;resizable=0;rotatable=0;perimeter=centerPerimeter;snapToPoint=1;rounded=1;" parent="GwXWVeqkWk4CuG4hyDd8-37" vertex="1">
          <mxGeometry y="15.749999999999998" width="20" height="20" as="geometry" />
        </mxCell>
        <mxCell id="GwXWVeqkWk4CuG4hyDd8-40" value="" style="shape=waypoint;size=6;pointerEvents=1;points=[];fillColor=none;resizable=0;rotatable=0;perimeter=centerPerimeter;snapToPoint=1;rounded=1;" parent="GwXWVeqkWk4CuG4hyDd8-37" vertex="1">
          <mxGeometry y="7.874999999999999" width="20" height="20" as="geometry" />
        </mxCell>
        <mxCell id="GwXWVeqkWk4CuG4hyDd8-41" value="" style="group;rounded=1;" parent="1" vertex="1" connectable="0">
          <mxGeometry x="-827" y="-864" width="20" height="79" as="geometry" />
        </mxCell>
        <mxCell id="GwXWVeqkWk4CuG4hyDd8-42" value="" style="shape=waypoint;size=6;pointerEvents=1;points=[];fillColor=none;resizable=0;rotatable=0;perimeter=centerPerimeter;snapToPoint=1;rounded=1;" parent="GwXWVeqkWk4CuG4hyDd8-41" vertex="1">
          <mxGeometry width="20" height="20" as="geometry" />
        </mxCell>
        <mxCell id="GwXWVeqkWk4CuG4hyDd8-43" value="" style="shape=waypoint;size=6;pointerEvents=1;points=[];fillColor=none;resizable=0;rotatable=0;perimeter=centerPerimeter;snapToPoint=1;rounded=1;" parent="GwXWVeqkWk4CuG4hyDd8-41" vertex="1">
          <mxGeometry y="46.083333333333336" width="20" height="20" as="geometry" />
        </mxCell>
        <mxCell id="GwXWVeqkWk4CuG4hyDd8-44" value="" style="shape=waypoint;size=6;pointerEvents=1;points=[];fillColor=none;resizable=0;rotatable=0;perimeter=centerPerimeter;snapToPoint=1;rounded=1;" parent="GwXWVeqkWk4CuG4hyDd8-41" vertex="1">
          <mxGeometry y="23.041666666666668" width="20" height="20" as="geometry" />
        </mxCell>
        <mxCell id="GwXWVeqkWk4CuG4hyDd8-64" style="edgeStyle=orthogonalEdgeStyle;rounded=1;orthogonalLoop=1;jettySize=auto;html=1;exitX=1;exitY=0.5;exitDx=0;exitDy=0;entryX=0;entryY=0.5;entryDx=0;entryDy=0;" parent="1" source="GwXWVeqkWk4CuG4hyDd8-49" target="GwXWVeqkWk4CuG4hyDd8-60" edge="1">
          <mxGeometry relative="1" as="geometry" />
        </mxCell>
        <mxCell id="GwXWVeqkWk4CuG4hyDd8-49" value="&lt;b&gt;spark&lt;/b&gt;" style="rounded=1;whiteSpace=wrap;html=1;fillColor=#f8cecc;strokeColor=#b85450;" parent="1" vertex="1">
          <mxGeometry x="-611" y="-916" width="72" height="63" as="geometry" />
        </mxCell>
        <mxCell id="GwXWVeqkWk4CuG4hyDd8-57" style="edgeStyle=orthogonalEdgeStyle;rounded=1;orthogonalLoop=1;jettySize=auto;html=1;exitX=0;exitY=0.5;exitDx=0;exitDy=0;entryX=0;entryY=0.5;entryDx=0;entryDy=0;" parent="1" source="GwXWVeqkWk4CuG4hyDd8-32" target="GwXWVeqkWk4CuG4hyDd8-49" edge="1">
          <mxGeometry relative="1" as="geometry" />
        </mxCell>
        <mxCell id="2c4CWH6P1AbNS3VImMZC-7" style="edgeStyle=orthogonalEdgeStyle;rounded=1;orthogonalLoop=1;jettySize=auto;html=1;exitX=1;exitY=0.5;exitDx=0;exitDy=0;entryX=0;entryY=0.5;entryDx=0;entryDy=0;" edge="1" parent="1" source="GwXWVeqkWk4CuG4hyDd8-60" target="2c4CWH6P1AbNS3VImMZC-3">
          <mxGeometry relative="1" as="geometry" />
        </mxCell>
        <mxCell id="2c4CWH6P1AbNS3VImMZC-8" style="edgeStyle=orthogonalEdgeStyle;rounded=1;orthogonalLoop=1;jettySize=auto;html=1;exitX=1;exitY=0.7;exitDx=0;exitDy=0;entryX=0;entryY=0.5;entryDx=0;entryDy=0;" edge="1" parent="1" source="GwXWVeqkWk4CuG4hyDd8-60" target="2c4CWH6P1AbNS3VImMZC-4">
          <mxGeometry relative="1" as="geometry" />
        </mxCell>
        <mxCell id="GwXWVeqkWk4CuG4hyDd8-60" value="ES" style="shape=datastore;whiteSpace=wrap;html=1;rounded=1;fillColor=#f8cecc;strokeColor=#b85450;fontStyle=1" parent="1" vertex="1">
          <mxGeometry x="-490" y="-914" width="60" height="60" as="geometry" />
        </mxCell>
        <mxCell id="2c4CWH6P1AbNS3VImMZC-9" style="edgeStyle=orthogonalEdgeStyle;rounded=1;orthogonalLoop=1;jettySize=auto;html=1;exitX=1;exitY=0.7;exitDx=0;exitDy=0;entryX=0;entryY=0.5;entryDx=0;entryDy=0;" edge="1" parent="1" source="GwXWVeqkWk4CuG4hyDd8-61" target="2c4CWH6P1AbNS3VImMZC-4">
          <mxGeometry relative="1" as="geometry">
            <mxPoint x="-389.52173913043475" y="-738.695652173913" as="targetPoint" />
          </mxGeometry>
        </mxCell>
        <mxCell id="GwXWVeqkWk4CuG4hyDd8-61" value="Mongo" style="shape=datastore;whiteSpace=wrap;html=1;rounded=1;fillColor=#f8cecc;strokeColor=#b85450;fontStyle=1" parent="1" vertex="1">
          <mxGeometry x="-491" y="-800" width="60" height="60" as="geometry" />
        </mxCell>
        <mxCell id="GwXWVeqkWk4CuG4hyDd8-62" value="&lt;b&gt;&lt;font style=&quot;font-size: 14px;&quot;&gt;eshop-prod域&lt;/font&gt;&lt;/b&gt;" style="text;html=1;align=center;verticalAlign=middle;resizable=0;points=[];autosize=1;strokeColor=none;fillColor=none;rounded=1;" parent="1" vertex="1">
          <mxGeometry x="-1053" y="-809" width="109" height="29" as="geometry" />
        </mxCell>
        <mxCell id="GwXWVeqkWk4CuG4hyDd8-63" value="&lt;b&gt;&lt;font style=&quot;font-size: 14px;&quot;&gt;CoreTran3-prod域&lt;/font&gt;&lt;/b&gt;" style="text;html=1;align=center;verticalAlign=middle;resizable=0;points=[];autosize=1;strokeColor=none;fillColor=none;rounded=1;" parent="1" vertex="1">
          <mxGeometry x="-1062" y="-979" width="137" height="29" as="geometry" />
        </mxCell>
        <mxCell id="GwXWVeqkWk4CuG4hyDd8-69" style="edgeStyle=orthogonalEdgeStyle;rounded=1;orthogonalLoop=1;jettySize=auto;html=1;exitX=1;exitY=0.5;exitDx=0;exitDy=0;entryX=0;entryY=0.5;entryDx=0;entryDy=0;" parent="1" source="GwXWVeqkWk4CuG4hyDd8-67" target="GwXWVeqkWk4CuG4hyDd8-61" edge="1">
          <mxGeometry relative="1" as="geometry" />
        </mxCell>
        <mxCell id="GwXWVeqkWk4CuG4hyDd8-70" style="edgeStyle=orthogonalEdgeStyle;rounded=1;orthogonalLoop=1;jettySize=auto;html=1;exitX=1;exitY=0.25;exitDx=0;exitDy=0;entryX=0;entryY=0.7;entryDx=0;entryDy=0;" parent="1" source="GwXWVeqkWk4CuG4hyDd8-67" target="GwXWVeqkWk4CuG4hyDd8-60" edge="1">
          <mxGeometry relative="1" as="geometry" />
        </mxCell>
        <mxCell id="GwXWVeqkWk4CuG4hyDd8-67" value="&lt;b&gt;ingester&lt;/b&gt;" style="rounded=1;whiteSpace=wrap;html=1;fillColor=#f8cecc;strokeColor=#b85450;" parent="1" vertex="1">
          <mxGeometry x="-610" y="-804" width="67" height="67" as="geometry" />
        </mxCell>
        <mxCell id="GwXWVeqkWk4CuG4hyDd8-68" style="edgeStyle=orthogonalEdgeStyle;rounded=1;orthogonalLoop=1;jettySize=auto;html=1;exitX=0;exitY=0.5;exitDx=0;exitDy=0;entryX=0;entryY=0.5;entryDx=0;entryDy=0;" parent="1" source="GwXWVeqkWk4CuG4hyDd8-32" target="GwXWVeqkWk4CuG4hyDd8-67" edge="1">
          <mxGeometry relative="1" as="geometry" />
        </mxCell>
        <mxCell id="GwXWVeqkWk4CuG4hyDd8-71" value="" style="endArrow=none;dashed=1;html=1;rounded=1;strokeWidth=2;fillColor=#dae8fc;strokeColor=#6c8ebf;" parent="1" edge="1">
          <mxGeometry width="50" height="50" relative="1" as="geometry">
            <mxPoint x="-419" y="-1043" as="sourcePoint" />
            <mxPoint x="-419" y="-674" as="targetPoint" />
          </mxGeometry>
        </mxCell>
        <mxCell id="2c4CWH6P1AbNS3VImMZC-1" value="数据采集存储" style="text;html=1;align=center;verticalAlign=middle;resizable=0;points=[];autosize=1;strokeColor=#d6b656;fillColor=#fff2cc;fontStyle=1;fontSize=15;rounded=1;" vertex="1" parent="1">
          <mxGeometry x="-538" y="-1042" width="108" height="30" as="geometry" />
        </mxCell>
        <mxCell id="2c4CWH6P1AbNS3VImMZC-2" value="数据查询展示" style="text;html=1;align=center;verticalAlign=middle;resizable=0;points=[];autosize=1;strokeColor=#d6b656;fillColor=#fff2cc;fontStyle=1;fontSize=15;rounded=1;" vertex="1" parent="1">
          <mxGeometry x="-408" y="-1041" width="108" height="30" as="geometry" />
        </mxCell>
        <mxCell id="2c4CWH6P1AbNS3VImMZC-3" value="grafana" style="rounded=1;whiteSpace=wrap;html=1;fontStyle=1" vertex="1" parent="1">
          <mxGeometry x="-387" y="-905" width="90" height="41" as="geometry" />
        </mxCell>
        <mxCell id="2c4CWH6P1AbNS3VImMZC-6" value="" style="edgeStyle=orthogonalEdgeStyle;rounded=1;orthogonalLoop=1;jettySize=auto;html=1;" edge="1" parent="1" source="2c4CWH6P1AbNS3VImMZC-4" target="2c4CWH6P1AbNS3VImMZC-5">
          <mxGeometry relative="1" as="geometry" />
        </mxCell>
        <mxCell id="2c4CWH6P1AbNS3VImMZC-4" value="jaeger-query" style="rounded=1;whiteSpace=wrap;html=1;fontStyle=1" vertex="1" parent="1">
          <mxGeometry x="-389" y="-816" width="90" height="41" as="geometry" />
        </mxCell>
        <mxCell id="2c4CWH6P1AbNS3VImMZC-5" value="jaeger-ui" style="rounded=1;whiteSpace=wrap;html=1;fontStyle=1" vertex="1" parent="1">
          <mxGeometry x="-279" y="-816" width="90" height="41" as="geometry" />
        </mxCell>
        <mxCell id="2c4CWH6P1AbNS3VImMZC-14" style="edgeStyle=orthogonalEdgeStyle;rounded=1;orthogonalLoop=1;jettySize=auto;html=1;exitX=1;exitY=0.5;exitDx=0;exitDy=0;entryX=0;entryY=0.75;entryDx=0;entryDy=0;" edge="1" parent="1" source="2c4CWH6P1AbNS3VImMZC-3" target="2c4CWH6P1AbNS3VImMZC-18">
          <mxGeometry relative="1" as="geometry">
            <mxPoint x="-168" y="-853" as="targetPoint" />
          </mxGeometry>
        </mxCell>
        <mxCell id="2c4CWH6P1AbNS3VImMZC-16" style="edgeStyle=orthogonalEdgeStyle;rounded=1;orthogonalLoop=1;jettySize=auto;html=1;exitX=0.5;exitY=0;exitDx=0;exitDy=0;entryX=0;entryY=0.75;entryDx=0;entryDy=0;" edge="1" parent="1" source="2c4CWH6P1AbNS3VImMZC-5" target="2c4CWH6P1AbNS3VImMZC-18">
          <mxGeometry relative="1" as="geometry">
            <mxPoint x="-168" y="-853" as="targetPoint" />
          </mxGeometry>
        </mxCell>
        <mxCell id="2c4CWH6P1AbNS3VImMZC-20" value="" style="rounded=1;whiteSpace=wrap;html=1;fillColor=#CCE5FF;" vertex="1" parent="1">
          <mxGeometry x="-1055" y="-551" width="136" height="129" as="geometry" />
        </mxCell>
        <mxCell id="2c4CWH6P1AbNS3VImMZC-21" style="edgeStyle=orthogonalEdgeStyle;rounded=1;orthogonalLoop=1;jettySize=auto;html=1;exitX=1;exitY=0.5;exitDx=0;exitDy=0;entryX=0;entryY=0.5;entryDx=0;entryDy=0;" edge="1" parent="1" source="2c4CWH6P1AbNS3VImMZC-22" target="2c4CWH6P1AbNS3VImMZC-31">
          <mxGeometry relative="1" as="geometry">
            <mxPoint x="-863.375" y="-462.5" as="targetPoint" />
          </mxGeometry>
        </mxCell>
        <mxCell id="2c4CWH6P1AbNS3VImMZC-22" value="&lt;b&gt;PCMS边车&lt;/b&gt;" style="rounded=1;whiteSpace=wrap;html=1;" vertex="1" parent="1">
          <mxGeometry x="-1047" y="-466" width="120" height="34" as="geometry" />
        </mxCell>
        <mxCell id="2c4CWH6P1AbNS3VImMZC-23" style="edgeStyle=orthogonalEdgeStyle;rounded=1;orthogonalLoop=1;jettySize=auto;html=1;exitX=1;exitY=0.5;exitDx=0;exitDy=0;entryX=0;entryY=0.5;entryDx=0;entryDy=0;" edge="1" parent="1" source="2c4CWH6P1AbNS3VImMZC-24" target="2c4CWH6P1AbNS3VImMZC-31">
          <mxGeometry relative="1" as="geometry" />
        </mxCell>
        <mxCell id="2c4CWH6P1AbNS3VImMZC-24" value="&lt;b&gt;Gateway&lt;/b&gt;" style="rounded=1;whiteSpace=wrap;html=1;" vertex="1" parent="1">
          <mxGeometry x="-1047" y="-513" width="120" height="37" as="geometry" />
        </mxCell>
        <mxCell id="2c4CWH6P1AbNS3VImMZC-25" value="" style="rounded=1;whiteSpace=wrap;html=1;fillColor=#CCE5FF;" vertex="1" parent="1">
          <mxGeometry x="-1057" y="-382" width="136" height="139" as="geometry" />
        </mxCell>
        <mxCell id="2c4CWH6P1AbNS3VImMZC-26" style="edgeStyle=orthogonalEdgeStyle;rounded=1;orthogonalLoop=1;jettySize=auto;html=1;exitX=1;exitY=0.5;exitDx=0;exitDy=0;entryX=0;entryY=0.5;entryDx=0;entryDy=0;" edge="1" parent="1" source="2c4CWH6P1AbNS3VImMZC-27" target="2c4CWH6P1AbNS3VImMZC-33">
          <mxGeometry relative="1" as="geometry" />
        </mxCell>
        <mxCell id="2c4CWH6P1AbNS3VImMZC-27" value="&lt;b&gt;eshop边车&lt;/b&gt;" style="rounded=1;whiteSpace=wrap;html=1;" vertex="1" parent="1">
          <mxGeometry x="-1049" y="-290" width="120" height="35" as="geometry" />
        </mxCell>
        <mxCell id="2c4CWH6P1AbNS3VImMZC-28" style="edgeStyle=orthogonalEdgeStyle;rounded=1;orthogonalLoop=1;jettySize=auto;html=1;exitX=1;exitY=0.5;exitDx=0;exitDy=0;entryX=0;entryY=0.5;entryDx=0;entryDy=0;" edge="1" parent="1" source="2c4CWH6P1AbNS3VImMZC-29" target="2c4CWH6P1AbNS3VImMZC-33">
          <mxGeometry relative="1" as="geometry" />
        </mxCell>
        <mxCell id="2c4CWH6P1AbNS3VImMZC-29" value="&lt;b&gt;Gateway&lt;/b&gt;" style="rounded=1;whiteSpace=wrap;html=1;" vertex="1" parent="1">
          <mxGeometry x="-1049" y="-334" width="120" height="35" as="geometry" />
        </mxCell>
        <mxCell id="2c4CWH6P1AbNS3VImMZC-31" value="&lt;b&gt;CoreTran3-prod&lt;/b&gt;&lt;div&gt;&lt;b&gt;采集器&lt;/b&gt;&lt;/div&gt;" style="rounded=1;whiteSpace=wrap;html=1;" vertex="1" parent="1">
          <mxGeometry x="-891" y="-502" width="120" height="60" as="geometry" />
        </mxCell>
        <mxCell id="2c4CWH6P1AbNS3VImMZC-76" style="edgeStyle=orthogonalEdgeStyle;rounded=1;orthogonalLoop=1;jettySize=auto;html=1;exitX=1;exitY=0.5;exitDx=0;exitDy=0;" edge="1" parent="1" source="2c4CWH6P1AbNS3VImMZC-33" target="2c4CWH6P1AbNS3VImMZC-72">
          <mxGeometry relative="1" as="geometry" />
        </mxCell>
        <mxCell id="2c4CWH6P1AbNS3VImMZC-33" value="&lt;b&gt;eshop-prod&lt;/b&gt;&lt;div&gt;&lt;b&gt;采集器&lt;/b&gt;&lt;/div&gt;" style="rounded=1;whiteSpace=wrap;html=1;" vertex="1" parent="1">
          <mxGeometry x="-895" y="-324" width="120" height="60" as="geometry" />
        </mxCell>
        <mxCell id="2c4CWH6P1AbNS3VImMZC-34" value="" style="group;rounded=1;" vertex="1" connectable="0" parent="1">
          <mxGeometry x="-755" y="-501" width="108" height="60" as="geometry" />
        </mxCell>
        <mxCell id="2c4CWH6P1AbNS3VImMZC-35" value="" style="shape=dataStorage;whiteSpace=wrap;html=1;fixedSize=1;rotation=-180;rounded=1;fillColor=#d5e8d4;strokeColor=#82b366;" vertex="1" parent="2c4CWH6P1AbNS3VImMZC-34">
          <mxGeometry x="-11.647058823529411" width="117.5294117647059" height="60" as="geometry" />
        </mxCell>
        <mxCell id="2c4CWH6P1AbNS3VImMZC-36" value="&lt;b&gt;kafka&lt;/b&gt;&lt;div&gt;&lt;b&gt;&lt;font style=&quot;color: rgb(255, 0, 0);&quot;&gt;核心专属topic&lt;/font&gt;&lt;/b&gt;&lt;/div&gt;" style="text;html=1;align=center;verticalAlign=middle;resizable=0;points=[];autosize=1;strokeColor=none;fillColor=#d5e8d4;rounded=1;" vertex="1" parent="2c4CWH6P1AbNS3VImMZC-34">
          <mxGeometry x="7.411764705882353" y="12.749999999999998" width="95" height="41" as="geometry" />
        </mxCell>
        <mxCell id="2c4CWH6P1AbNS3VImMZC-37" value="" style="group;rounded=1;" vertex="1" connectable="0" parent="1">
          <mxGeometry x="-1000" y="-413" width="20" height="27" as="geometry" />
        </mxCell>
        <mxCell id="2c4CWH6P1AbNS3VImMZC-38" value="" style="shape=waypoint;size=6;pointerEvents=1;points=[];fillColor=none;resizable=0;rotatable=0;perimeter=centerPerimeter;snapToPoint=1;rounded=1;" vertex="1" parent="2c4CWH6P1AbNS3VImMZC-37">
          <mxGeometry width="20" height="20" as="geometry" />
        </mxCell>
        <mxCell id="2c4CWH6P1AbNS3VImMZC-39" value="" style="shape=waypoint;size=6;pointerEvents=1;points=[];fillColor=none;resizable=0;rotatable=0;perimeter=centerPerimeter;snapToPoint=1;rounded=1;" vertex="1" parent="2c4CWH6P1AbNS3VImMZC-37">
          <mxGeometry y="15.749999999999998" width="20" height="20" as="geometry" />
        </mxCell>
        <mxCell id="2c4CWH6P1AbNS3VImMZC-40" value="" style="shape=waypoint;size=6;pointerEvents=1;points=[];fillColor=none;resizable=0;rotatable=0;perimeter=centerPerimeter;snapToPoint=1;rounded=1;" vertex="1" parent="2c4CWH6P1AbNS3VImMZC-37">
          <mxGeometry y="7.874999999999999" width="20" height="20" as="geometry" />
        </mxCell>
        <mxCell id="2c4CWH6P1AbNS3VImMZC-41" value="" style="group;rounded=1;" vertex="1" connectable="0" parent="1">
          <mxGeometry x="-820" y="-429" width="20" height="79" as="geometry" />
        </mxCell>
        <mxCell id="2c4CWH6P1AbNS3VImMZC-42" value="" style="shape=waypoint;size=6;pointerEvents=1;points=[];fillColor=none;resizable=0;rotatable=0;perimeter=centerPerimeter;snapToPoint=1;rounded=1;" vertex="1" parent="2c4CWH6P1AbNS3VImMZC-41">
          <mxGeometry width="20" height="20" as="geometry" />
        </mxCell>
        <mxCell id="2c4CWH6P1AbNS3VImMZC-43" value="" style="shape=waypoint;size=6;pointerEvents=1;points=[];fillColor=none;resizable=0;rotatable=0;perimeter=centerPerimeter;snapToPoint=1;rounded=1;" vertex="1" parent="2c4CWH6P1AbNS3VImMZC-41">
          <mxGeometry y="46.083333333333336" width="20" height="20" as="geometry" />
        </mxCell>
        <mxCell id="2c4CWH6P1AbNS3VImMZC-44" value="" style="shape=waypoint;size=6;pointerEvents=1;points=[];fillColor=none;resizable=0;rotatable=0;perimeter=centerPerimeter;snapToPoint=1;rounded=1;" vertex="1" parent="2c4CWH6P1AbNS3VImMZC-41">
          <mxGeometry y="23.041666666666668" width="20" height="20" as="geometry" />
        </mxCell>
        <mxCell id="2c4CWH6P1AbNS3VImMZC-45" style="edgeStyle=orthogonalEdgeStyle;rounded=1;orthogonalLoop=1;jettySize=auto;html=1;exitX=1;exitY=0.5;exitDx=0;exitDy=0;entryX=0;entryY=0.5;entryDx=0;entryDy=0;" edge="1" parent="1" source="2c4CWH6P1AbNS3VImMZC-46" target="2c4CWH6P1AbNS3VImMZC-50">
          <mxGeometry relative="1" as="geometry" />
        </mxCell>
        <mxCell id="2c4CWH6P1AbNS3VImMZC-46" value="&lt;b&gt;spark&lt;/b&gt;&lt;div&gt;&lt;b&gt;核心&lt;/b&gt;&lt;/div&gt;" style="rounded=1;whiteSpace=wrap;html=1;fillColor=#d5e8d4;strokeColor=#82b366;" vertex="1" parent="1">
          <mxGeometry x="-605" y="-531" width="72" height="63" as="geometry" />
        </mxCell>
        <mxCell id="2c4CWH6P1AbNS3VImMZC-47" style="edgeStyle=orthogonalEdgeStyle;rounded=1;orthogonalLoop=1;jettySize=auto;html=1;exitX=0;exitY=0.5;exitDx=0;exitDy=0;entryX=0;entryY=0.5;entryDx=0;entryDy=0;" edge="1" parent="1" source="2c4CWH6P1AbNS3VImMZC-35" target="2c4CWH6P1AbNS3VImMZC-46">
          <mxGeometry relative="1" as="geometry" />
        </mxCell>
        <mxCell id="2c4CWH6P1AbNS3VImMZC-86" style="edgeStyle=orthogonalEdgeStyle;rounded=1;orthogonalLoop=1;jettySize=auto;html=1;exitX=1;exitY=0.5;exitDx=0;exitDy=0;entryX=0;entryY=0.5;entryDx=0;entryDy=0;" edge="1" parent="1" source="2c4CWH6P1AbNS3VImMZC-50" target="2c4CWH6P1AbNS3VImMZC-64">
          <mxGeometry relative="1" as="geometry" />
        </mxCell>
        <mxCell id="2c4CWH6P1AbNS3VImMZC-50" value="ES&lt;div&gt;核心&lt;/div&gt;" style="shape=datastore;whiteSpace=wrap;html=1;rounded=1;fillColor=#d5e8d4;strokeColor=#82b366;fontStyle=1" vertex="1" parent="1">
          <mxGeometry x="-484" y="-529" width="60" height="60" as="geometry" />
        </mxCell>
        <mxCell id="2c4CWH6P1AbNS3VImMZC-87" style="edgeStyle=orthogonalEdgeStyle;rounded=1;orthogonalLoop=1;jettySize=auto;html=1;exitX=1;exitY=0.5;exitDx=0;exitDy=0;entryX=0;entryY=0.5;entryDx=0;entryDy=0;" edge="1" parent="1" source="2c4CWH6P1AbNS3VImMZC-52" target="2c4CWH6P1AbNS3VImMZC-64">
          <mxGeometry relative="1" as="geometry" />
        </mxCell>
        <mxCell id="2c4CWH6P1AbNS3VImMZC-52" value="Mongo&lt;div&gt;核心&lt;/div&gt;" style="shape=datastore;whiteSpace=wrap;html=1;rounded=1;fillColor=#d5e8d4;strokeColor=#82b366;fontStyle=1" vertex="1" parent="1">
          <mxGeometry x="-484" y="-457" width="60" height="60" as="geometry" />
        </mxCell>
        <mxCell id="2c4CWH6P1AbNS3VImMZC-53" value="&lt;b&gt;&lt;font style=&quot;font-size: 14px;&quot;&gt;eshop-prod域&lt;/font&gt;&lt;/b&gt;" style="text;html=1;align=center;verticalAlign=middle;resizable=0;points=[];autosize=1;strokeColor=none;fillColor=none;rounded=1;" vertex="1" parent="1">
          <mxGeometry x="-1046" y="-374" width="109" height="29" as="geometry" />
        </mxCell>
        <mxCell id="2c4CWH6P1AbNS3VImMZC-54" value="&lt;b&gt;&lt;font style=&quot;font-size: 14px;&quot;&gt;CoreTran3-prod域&lt;/font&gt;&lt;/b&gt;" style="text;html=1;align=center;verticalAlign=middle;resizable=0;points=[];autosize=1;strokeColor=none;fillColor=none;rounded=1;" vertex="1" parent="1">
          <mxGeometry x="-1055" y="-544" width="137" height="29" as="geometry" />
        </mxCell>
        <mxCell id="2c4CWH6P1AbNS3VImMZC-55" style="edgeStyle=orthogonalEdgeStyle;rounded=1;orthogonalLoop=1;jettySize=auto;html=1;exitX=1;exitY=0.5;exitDx=0;exitDy=0;entryX=0;entryY=0.5;entryDx=0;entryDy=0;" edge="1" parent="1" source="2c4CWH6P1AbNS3VImMZC-57" target="2c4CWH6P1AbNS3VImMZC-52">
          <mxGeometry relative="1" as="geometry" />
        </mxCell>
        <mxCell id="2c4CWH6P1AbNS3VImMZC-56" style="edgeStyle=orthogonalEdgeStyle;rounded=1;orthogonalLoop=1;jettySize=auto;html=1;exitX=1;exitY=0.25;exitDx=0;exitDy=0;entryX=0;entryY=0.7;entryDx=0;entryDy=0;" edge="1" parent="1" source="2c4CWH6P1AbNS3VImMZC-57" target="2c4CWH6P1AbNS3VImMZC-50">
          <mxGeometry relative="1" as="geometry" />
        </mxCell>
        <mxCell id="2c4CWH6P1AbNS3VImMZC-57" value="&lt;b&gt;ingester&lt;/b&gt;&lt;div&gt;&lt;b&gt;核心&lt;/b&gt;&lt;/div&gt;" style="rounded=1;whiteSpace=wrap;html=1;fillColor=#d5e8d4;strokeColor=#82b366;" vertex="1" parent="1">
          <mxGeometry x="-604" y="-461" width="67" height="67" as="geometry" />
        </mxCell>
        <mxCell id="2c4CWH6P1AbNS3VImMZC-58" style="edgeStyle=orthogonalEdgeStyle;rounded=1;orthogonalLoop=1;jettySize=auto;html=1;exitX=0;exitY=0.5;exitDx=0;exitDy=0;entryX=0;entryY=0.5;entryDx=0;entryDy=0;" edge="1" parent="1" source="2c4CWH6P1AbNS3VImMZC-35" target="2c4CWH6P1AbNS3VImMZC-57">
          <mxGeometry relative="1" as="geometry" />
        </mxCell>
        <mxCell id="2c4CWH6P1AbNS3VImMZC-59" value="" style="endArrow=none;dashed=1;html=1;rounded=1;strokeWidth=2;fillColor=#dae8fc;strokeColor=#6c8ebf;" edge="1" parent="1">
          <mxGeometry width="50" height="50" relative="1" as="geometry">
            <mxPoint x="-413" y="-587" as="sourcePoint" />
            <mxPoint x="-413" y="-218" as="targetPoint" />
          </mxGeometry>
        </mxCell>
        <mxCell id="2c4CWH6P1AbNS3VImMZC-60" value="数据采集存储" style="text;html=1;align=center;verticalAlign=middle;resizable=0;points=[];autosize=1;strokeColor=#d6b656;fillColor=#fff2cc;fontStyle=1;fontSize=15;rounded=1;" vertex="1" parent="1">
          <mxGeometry x="-531" y="-584" width="108" height="30" as="geometry" />
        </mxCell>
        <mxCell id="2c4CWH6P1AbNS3VImMZC-61" value="数据查询展示" style="text;html=1;align=center;verticalAlign=middle;resizable=0;points=[];autosize=1;strokeColor=#d6b656;fillColor=#fff2cc;fontStyle=1;fontSize=15;rounded=1;" vertex="1" parent="1">
          <mxGeometry x="-401" y="-585" width="108" height="30" as="geometry" />
        </mxCell>
        <mxCell id="2c4CWH6P1AbNS3VImMZC-62" value="grafana" style="rounded=1;whiteSpace=wrap;html=1;fontStyle=1" vertex="1" parent="1">
          <mxGeometry x="-265" y="-490" width="66" height="41" as="geometry" />
        </mxCell>
        <mxCell id="2c4CWH6P1AbNS3VImMZC-63" value="" style="edgeStyle=orthogonalEdgeStyle;rounded=1;orthogonalLoop=1;jettySize=auto;html=1;entryX=0;entryY=0.5;entryDx=0;entryDy=0;" edge="1" parent="1" source="2c4CWH6P1AbNS3VImMZC-64" target="2c4CWH6P1AbNS3VImMZC-65">
          <mxGeometry relative="1" as="geometry" />
        </mxCell>
        <mxCell id="2c4CWH6P1AbNS3VImMZC-90" style="edgeStyle=orthogonalEdgeStyle;rounded=1;orthogonalLoop=1;jettySize=auto;html=1;exitX=1;exitY=0.25;exitDx=0;exitDy=0;entryX=0;entryY=0.5;entryDx=0;entryDy=0;" edge="1" parent="1" source="2c4CWH6P1AbNS3VImMZC-64" target="2c4CWH6P1AbNS3VImMZC-62">
          <mxGeometry relative="1" as="geometry" />
        </mxCell>
        <mxCell id="2c4CWH6P1AbNS3VImMZC-64" value="数据查询&lt;div&gt;聚合服务&lt;/div&gt;" style="rounded=1;whiteSpace=wrap;html=1;fontStyle=1;fillColor=#d5e8d4;strokeColor=#82b366;" vertex="1" parent="1">
          <mxGeometry x="-374" y="-394" width="70" height="41" as="geometry" />
        </mxCell>
        <mxCell id="2c4CWH6P1AbNS3VImMZC-65" value="jaeger-ui" style="rounded=1;whiteSpace=wrap;html=1;fontStyle=1" vertex="1" parent="1">
          <mxGeometry x="-260" y="-338" width="70" height="41" as="geometry" />
        </mxCell>
        <mxCell id="2c4CWH6P1AbNS3VImMZC-66" style="edgeStyle=orthogonalEdgeStyle;rounded=1;orthogonalLoop=1;jettySize=auto;html=1;exitX=1;exitY=0.5;exitDx=0;exitDy=0;entryX=0;entryY=0.75;entryDx=0;entryDy=0;" edge="1" parent="1" source="2c4CWH6P1AbNS3VImMZC-62" target="2c4CWH6P1AbNS3VImMZC-68">
          <mxGeometry relative="1" as="geometry">
            <mxPoint x="-161" y="-418" as="targetPoint" />
          </mxGeometry>
        </mxCell>
        <mxCell id="2c4CWH6P1AbNS3VImMZC-67" style="edgeStyle=orthogonalEdgeStyle;rounded=1;orthogonalLoop=1;jettySize=auto;html=1;exitX=1;exitY=0.5;exitDx=0;exitDy=0;entryX=0;entryY=0.75;entryDx=0;entryDy=0;" edge="1" parent="1" source="2c4CWH6P1AbNS3VImMZC-65" target="2c4CWH6P1AbNS3VImMZC-68">
          <mxGeometry relative="1" as="geometry">
            <mxPoint x="-161" y="-418" as="targetPoint" />
          </mxGeometry>
        </mxCell>
        <mxCell id="2c4CWH6P1AbNS3VImMZC-70" value="" style="group;rounded=1;" vertex="1" connectable="0" parent="1">
          <mxGeometry x="-751" y="-326" width="108" height="60" as="geometry" />
        </mxCell>
        <mxCell id="2c4CWH6P1AbNS3VImMZC-71" value="" style="shape=dataStorage;whiteSpace=wrap;html=1;fixedSize=1;rotation=-180;rounded=1;fillColor=#d5e8d4;strokeColor=#82b366;" vertex="1" parent="2c4CWH6P1AbNS3VImMZC-70">
          <mxGeometry x="-11.65" width="117.53" height="60" as="geometry" />
        </mxCell>
        <mxCell id="2c4CWH6P1AbNS3VImMZC-72" value="&lt;b&gt;kafka&lt;/b&gt;&lt;div&gt;&lt;b&gt;&lt;font style=&quot;color: rgb(255, 0, 0);&quot;&gt;个险专属topic&lt;/font&gt;&lt;/b&gt;&lt;/div&gt;" style="text;html=1;align=center;verticalAlign=middle;resizable=0;points=[];autosize=1;strokeColor=none;fillColor=#d5e8d4;rounded=1;" vertex="1" parent="2c4CWH6P1AbNS3VImMZC-70">
          <mxGeometry x="7.411764705882353" y="12.749999999999998" width="95" height="41" as="geometry" />
        </mxCell>
        <mxCell id="2c4CWH6P1AbNS3VImMZC-74" style="edgeStyle=orthogonalEdgeStyle;rounded=1;orthogonalLoop=1;jettySize=auto;html=1;exitX=1;exitY=0.5;exitDx=0;exitDy=0;entryX=0.08;entryY=0.41;entryDx=0;entryDy=0;entryPerimeter=0;" edge="1" parent="1" source="2c4CWH6P1AbNS3VImMZC-31" target="2c4CWH6P1AbNS3VImMZC-36">
          <mxGeometry relative="1" as="geometry" />
        </mxCell>
        <mxCell id="2c4CWH6P1AbNS3VImMZC-77" style="edgeStyle=orthogonalEdgeStyle;rounded=1;orthogonalLoop=1;jettySize=auto;html=1;exitX=1;exitY=0.5;exitDx=0;exitDy=0;entryX=0;entryY=0.5;entryDx=0;entryDy=0;" edge="1" parent="1" source="2c4CWH6P1AbNS3VImMZC-78" target="2c4CWH6P1AbNS3VImMZC-80">
          <mxGeometry relative="1" as="geometry" />
        </mxCell>
        <mxCell id="2c4CWH6P1AbNS3VImMZC-78" value="&lt;b&gt;spark&lt;/b&gt;&lt;div&gt;&lt;b&gt;个险&lt;/b&gt;&lt;/div&gt;" style="rounded=1;whiteSpace=wrap;html=1;fillColor=#d5e8d4;strokeColor=#82b366;" vertex="1" parent="1">
          <mxGeometry x="-602" y="-357" width="72" height="63" as="geometry" />
        </mxCell>
        <mxCell id="2c4CWH6P1AbNS3VImMZC-79" style="edgeStyle=orthogonalEdgeStyle;rounded=1;orthogonalLoop=1;jettySize=auto;html=1;exitX=0;exitY=0.5;exitDx=0;exitDy=0;entryX=0;entryY=0.5;entryDx=0;entryDy=0;" edge="1" parent="1" target="2c4CWH6P1AbNS3VImMZC-78">
          <mxGeometry relative="1" as="geometry">
            <mxPoint x="-646" y="-297" as="sourcePoint" />
          </mxGeometry>
        </mxCell>
        <mxCell id="2c4CWH6P1AbNS3VImMZC-88" style="edgeStyle=orthogonalEdgeStyle;rounded=1;orthogonalLoop=1;jettySize=auto;html=1;exitX=1;exitY=0.5;exitDx=0;exitDy=0;entryX=0;entryY=0.5;entryDx=0;entryDy=0;" edge="1" parent="1" source="2c4CWH6P1AbNS3VImMZC-80" target="2c4CWH6P1AbNS3VImMZC-64">
          <mxGeometry relative="1" as="geometry" />
        </mxCell>
        <mxCell id="2c4CWH6P1AbNS3VImMZC-80" value="ES&lt;div&gt;个险&lt;/div&gt;" style="shape=datastore;whiteSpace=wrap;html=1;rounded=1;fillColor=#d5e8d4;strokeColor=#82b366;fontStyle=1" vertex="1" parent="1">
          <mxGeometry x="-481" y="-355" width="60" height="60" as="geometry" />
        </mxCell>
        <mxCell id="2c4CWH6P1AbNS3VImMZC-89" style="edgeStyle=orthogonalEdgeStyle;rounded=1;orthogonalLoop=1;jettySize=auto;html=1;exitX=1;exitY=0.5;exitDx=0;exitDy=0;entryX=0;entryY=0.5;entryDx=0;entryDy=0;" edge="1" parent="1" source="2c4CWH6P1AbNS3VImMZC-81" target="2c4CWH6P1AbNS3VImMZC-64">
          <mxGeometry relative="1" as="geometry" />
        </mxCell>
        <mxCell id="2c4CWH6P1AbNS3VImMZC-81" value="Mongo&lt;div&gt;个险&lt;/div&gt;" style="shape=datastore;whiteSpace=wrap;html=1;rounded=1;fillColor=#d5e8d4;strokeColor=#82b366;fontStyle=1" vertex="1" parent="1">
          <mxGeometry x="-481" y="-283" width="60" height="60" as="geometry" />
        </mxCell>
        <mxCell id="2c4CWH6P1AbNS3VImMZC-82" style="edgeStyle=orthogonalEdgeStyle;rounded=1;orthogonalLoop=1;jettySize=auto;html=1;exitX=1;exitY=0.5;exitDx=0;exitDy=0;entryX=0;entryY=0.5;entryDx=0;entryDy=0;" edge="1" parent="1" source="2c4CWH6P1AbNS3VImMZC-84" target="2c4CWH6P1AbNS3VImMZC-81">
          <mxGeometry relative="1" as="geometry" />
        </mxCell>
        <mxCell id="2c4CWH6P1AbNS3VImMZC-83" style="edgeStyle=orthogonalEdgeStyle;rounded=1;orthogonalLoop=1;jettySize=auto;html=1;exitX=1;exitY=0.25;exitDx=0;exitDy=0;entryX=0;entryY=0.7;entryDx=0;entryDy=0;" edge="1" parent="1" source="2c4CWH6P1AbNS3VImMZC-84" target="2c4CWH6P1AbNS3VImMZC-80">
          <mxGeometry relative="1" as="geometry" />
        </mxCell>
        <mxCell id="2c4CWH6P1AbNS3VImMZC-84" value="&lt;b&gt;ingester&lt;/b&gt;&lt;div&gt;&lt;b&gt;个险&lt;/b&gt;&lt;/div&gt;" style="rounded=1;whiteSpace=wrap;html=1;fillColor=#d5e8d4;strokeColor=#82b366;" vertex="1" parent="1">
          <mxGeometry x="-601" y="-287" width="67" height="67" as="geometry" />
        </mxCell>
        <mxCell id="2c4CWH6P1AbNS3VImMZC-85" style="edgeStyle=orthogonalEdgeStyle;rounded=1;orthogonalLoop=1;jettySize=auto;html=1;exitX=0;exitY=0.5;exitDx=0;exitDy=0;entryX=0;entryY=0.5;entryDx=0;entryDy=0;" edge="1" parent="1" target="2c4CWH6P1AbNS3VImMZC-84">
          <mxGeometry relative="1" as="geometry">
            <mxPoint x="-646" y="-297" as="sourcePoint" />
          </mxGeometry>
        </mxCell>
        <mxCell id="2c4CWH6P1AbNS3VImMZC-91" value="" style="group" vertex="1" connectable="0" parent="1">
          <mxGeometry x="-128" y="-444" width="42" height="61" as="geometry" />
        </mxCell>
        <mxCell id="2c4CWH6P1AbNS3VImMZC-68" value="" style="shape=actor;whiteSpace=wrap;html=1;rounded=1;" vertex="1" parent="2c4CWH6P1AbNS3VImMZC-91">
          <mxGeometry width="40" height="60" as="geometry" />
        </mxCell>
        <mxCell id="2c4CWH6P1AbNS3VImMZC-69" value="用户" style="text;html=1;align=center;verticalAlign=middle;resizable=0;points=[];autosize=1;strokeColor=none;fillColor=none;" vertex="1" parent="2c4CWH6P1AbNS3VImMZC-91">
          <mxGeometry y="35" width="42" height="26" as="geometry" />
        </mxCell>
        <mxCell id="2c4CWH6P1AbNS3VImMZC-92" value="" style="group" vertex="1" connectable="0" parent="1">
          <mxGeometry x="-173" y="-893" width="42" height="61" as="geometry" />
        </mxCell>
        <mxCell id="2c4CWH6P1AbNS3VImMZC-18" value="" style="shape=actor;whiteSpace=wrap;html=1;rounded=1;" vertex="1" parent="2c4CWH6P1AbNS3VImMZC-92">
          <mxGeometry width="40" height="60" as="geometry" />
        </mxCell>
        <mxCell id="2c4CWH6P1AbNS3VImMZC-19" value="用户" style="text;html=1;align=center;verticalAlign=middle;resizable=0;points=[];autosize=1;strokeColor=none;fillColor=none;" vertex="1" parent="2c4CWH6P1AbNS3VImMZC-92">
          <mxGeometry y="35" width="42" height="26" as="geometry" />
        </mxCell>
      </root>
    </mxGraphModel>
  </diagram>
</mxfile>
